<mxfile host="app.diagrams.net" agent="Mozilla/5.0 (Windows NT 10.0; Win64; x64) AppleWebKit/537.36 (KHTML, like Gecko) Chrome/131.0.0.0 Safari/537.36" version="25.0.3">
  <diagram name="Page-1" id="e7e014a7-5840-1c2e-5031-d8a46d1fe8dd">
    <mxGraphModel dx="1235" dy="669" grid="1" gridSize="10" guides="1" tooltips="1" connect="1" arrows="1" fold="1" page="1" pageScale="1" pageWidth="1169" pageHeight="826" background="none" math="0" shadow="0">
      <root>
        <mxCell id="0" />
        <mxCell id="1" parent="0" />
        <mxCell id="2" value="Quản lý chung cư" style="swimlane;whiteSpace=wrap" parent="1" vertex="1">
          <mxGeometry x="90" y="128" width="354.5" height="570" as="geometry" />
        </mxCell>
        <mxCell id="5" value="" style="ellipse;shape=startState;fillColor=#000000;strokeColor=#ff0000;" parent="2" vertex="1">
          <mxGeometry x="100" y="40" width="30" height="30" as="geometry" />
        </mxCell>
        <mxCell id="6" value="" style="edgeStyle=elbowEdgeStyle;elbow=horizontal;verticalAlign=bottom;endArrow=open;endSize=8;strokeColor=#FF0000;endFill=1;rounded=0" parent="2" source="5" target="7" edge="1">
          <mxGeometry x="100" y="40" as="geometry">
            <mxPoint x="115" y="110" as="targetPoint" />
          </mxGeometry>
        </mxCell>
        <mxCell id="7" value="Lập danh sách" style="" parent="2" vertex="1">
          <mxGeometry x="60" y="110" width="110" height="50" as="geometry" />
        </mxCell>
        <mxCell id="8" value="Đi thu phí" style="" parent="2" vertex="1">
          <mxGeometry x="60" y="222" width="110" height="50" as="geometry" />
        </mxCell>
        <mxCell id="9" value="" style="endArrow=open;strokeColor=#FF0000;endFill=1;rounded=0" parent="2" source="7" target="8" edge="1">
          <mxGeometry relative="1" as="geometry" />
        </mxCell>
        <mxCell id="3" value="Hộ gia đình" style="swimlane;whiteSpace=wrap" parent="1" vertex="1">
          <mxGeometry x="444.5" y="128" width="465.5" height="570" as="geometry" />
        </mxCell>
        <mxCell id="zXokNd3CKHkxed-kSV-L-44" style="edgeStyle=orthogonalEdgeStyle;rounded=0;orthogonalLoop=1;jettySize=auto;html=1;entryX=0.5;entryY=0;entryDx=0;entryDy=0;strokeColor=#ff0000;" edge="1" parent="3" source="13" target="15">
          <mxGeometry relative="1" as="geometry" />
        </mxCell>
        <mxCell id="13" value="" style="ellipse;shape=startState;fillColor=#000000;strokeColor=#ff0000;" parent="3" vertex="1">
          <mxGeometry x="85.5" y="42" width="30" height="30" as="geometry" />
        </mxCell>
        <mxCell id="zXokNd3CKHkxed-kSV-L-49" style="rounded=0;orthogonalLoop=1;jettySize=auto;html=1;entryX=0.5;entryY=0;entryDx=0;entryDy=0;" edge="1" parent="3" source="15" target="zXokNd3CKHkxed-kSV-L-46">
          <mxGeometry relative="1" as="geometry" />
        </mxCell>
        <mxCell id="15" value="Xem thông tin" style="" parent="3" vertex="1">
          <mxGeometry x="45.5" y="222" width="110" height="50" as="geometry" />
        </mxCell>
        <mxCell id="zXokNd3CKHkxed-kSV-L-46" value="" style="rhombus;whiteSpace=wrap;html=1;fontColor=#000000;fillColor=#ffffc0;strokeColor=#ff0000;" vertex="1" parent="3">
          <mxGeometry x="60.5" y="312" width="80" height="40" as="geometry" />
        </mxCell>
        <mxCell id="zXokNd3CKHkxed-kSV-L-47" value="Tự nguyện&amp;nbsp;" style="edgeStyle=orthogonalEdgeStyle;html=1;align=left;verticalAlign=bottom;endArrow=open;endSize=8;strokeColor=#ff0000;rounded=0;" edge="1" source="zXokNd3CKHkxed-kSV-L-46" parent="3">
          <mxGeometry x="-1" relative="1" as="geometry">
            <mxPoint x="215.5" y="332" as="targetPoint" />
          </mxGeometry>
        </mxCell>
        <mxCell id="zXokNd3CKHkxed-kSV-L-48" value="Bắt buộc" style="html=1;align=left;verticalAlign=top;endArrow=open;endSize=8;strokeColor=#ff0000;rounded=0;entryX=0.5;entryY=0;entryDx=0;entryDy=0;" edge="1" source="zXokNd3CKHkxed-kSV-L-46" parent="3" target="zXokNd3CKHkxed-kSV-L-58">
          <mxGeometry x="-1" relative="1" as="geometry">
            <mxPoint x="100.5" y="412" as="targetPoint" />
          </mxGeometry>
        </mxCell>
        <mxCell id="zXokNd3CKHkxed-kSV-L-56" style="rounded=0;orthogonalLoop=1;jettySize=auto;html=1;exitX=0.5;exitY=1;exitDx=0;exitDy=0;entryX=0.5;entryY=0;entryDx=0;entryDy=0;strokeColor=#ff0000;" edge="1" parent="3" source="zXokNd3CKHkxed-kSV-L-50" target="zXokNd3CKHkxed-kSV-L-52">
          <mxGeometry relative="1" as="geometry" />
        </mxCell>
        <mxCell id="zXokNd3CKHkxed-kSV-L-50" value="Xem xét ủng hộ" style="" vertex="1" parent="3">
          <mxGeometry x="215.5" y="307" width="110" height="50" as="geometry" />
        </mxCell>
        <mxCell id="zXokNd3CKHkxed-kSV-L-52" value="" style="rhombus;whiteSpace=wrap;html=1;fontColor=#000000;fillColor=#ffffc0;strokeColor=#ff0000;" vertex="1" parent="3">
          <mxGeometry x="230.5" y="392" width="80" height="40" as="geometry" />
        </mxCell>
        <mxCell id="zXokNd3CKHkxed-kSV-L-53" value="Không ủng hộ" style="edgeStyle=orthogonalEdgeStyle;html=1;align=left;verticalAlign=bottom;endArrow=open;endSize=8;strokeColor=#ff0000;rounded=0;" edge="1" source="zXokNd3CKHkxed-kSV-L-52" parent="3">
          <mxGeometry x="-1" relative="1" as="geometry">
            <mxPoint x="415.5" y="412" as="targetPoint" />
          </mxGeometry>
        </mxCell>
        <mxCell id="zXokNd3CKHkxed-kSV-L-54" value="" style="html=1;align=left;verticalAlign=top;endArrow=open;endSize=8;strokeColor=#ff0000;rounded=0;entryX=1;entryY=0.5;entryDx=0;entryDy=0;" edge="1" source="zXokNd3CKHkxed-kSV-L-52" parent="3" target="zXokNd3CKHkxed-kSV-L-58">
          <mxGeometry x="-1" relative="1" as="geometry">
            <mxPoint x="270.5" y="492" as="targetPoint" />
          </mxGeometry>
        </mxCell>
        <mxCell id="zXokNd3CKHkxed-kSV-L-57" value="" style="ellipse;html=1;shape=endState;fillColor=#000000;strokeColor=#ff0000;" vertex="1" parent="3">
          <mxGeometry x="415.5" y="397" width="30" height="30" as="geometry" />
        </mxCell>
        <mxCell id="zXokNd3CKHkxed-kSV-L-58" value="Đóng khoản phí" style="" vertex="1" parent="3">
          <mxGeometry x="45.5" y="462" width="110" height="50" as="geometry" />
        </mxCell>
        <mxCell id="zXokNd3CKHkxed-kSV-L-59" value="Ủng hộ" style="text;html=1;align=center;verticalAlign=middle;resizable=0;points=[];autosize=1;strokeColor=none;fillColor=none;" vertex="1" parent="3">
          <mxGeometry x="202.75" y="442" width="60" height="30" as="geometry" />
        </mxCell>
        <mxCell id="zXokNd3CKHkxed-kSV-L-41" value="Activity Diagram" style="text;html=1;align=center;verticalAlign=middle;resizable=0;points=[];autosize=1;strokeColor=none;fillColor=none;" vertex="1" parent="1">
          <mxGeometry x="80" y="88" width="110" height="30" as="geometry" />
        </mxCell>
        <mxCell id="zXokNd3CKHkxed-kSV-L-43" style="rounded=0;orthogonalLoop=1;jettySize=auto;html=1;entryX=0;entryY=0.5;entryDx=0;entryDy=0;fillColor=#f8cecc;strokeColor=#ff0000;" edge="1" parent="1" source="8" target="15">
          <mxGeometry relative="1" as="geometry" />
        </mxCell>
      </root>
    </mxGraphModel>
  </diagram>
</mxfile>
